<?xml version="1.0" encoding="UTF-8" standalone="no"?>
<!DOCTYPE svg PUBLIC "-//W3C//DTD SVG 1.1//EN"
 "http://www.w3.org/Graphics/SVG/1.1/DTD/svg11.dtd">
<!-- Generated by graphviz version 2.47.3 (20210619.1520)
 -->
<!-- Title: dependencies Pages: 1 -->
<svg width="1316pt" height="247pt"
 viewBox="0.00 0.00 1316.00 246.80" xmlns="http://www.w3.org/2000/svg" xmlns:xlink="http://www.w3.org/1999/xlink">
<g id="graph0" class="graph" transform="scale(1 1) rotate(0) translate(4 242.8)">
<title>dependencies</title>
<polygon fill="white" stroke="transparent" points="-4,4 -4,-242.8 1312,-242.8 1312,4 -4,4"/>
<text text-anchor="middle" x="654" y="-8.2" font-family="sans-serif" font-size="14.00">dependencies</text>
<g id="clust1" class="cluster">
<title>cluster_AppModule</title>
<polygon fill="none" stroke="black" stroke-dasharray="1,5" points="8,-32.8 8,-230.8 1300,-230.8 1300,-32.8 8,-32.8"/>
</g>
<g id="clust11" class="cluster">
<title>cluster_AppModule_imports</title>
<polygon fill="none" stroke="black" points="1148,-40.8 1148,-92.8 1292,-92.8 1292,-40.8 1148,-40.8"/>
</g>
<g id="clust13" class="cluster">
<title>cluster_AppModule_bootstrap</title>
<polygon fill="none" stroke="black" points="581,-170.8 581,-222.8 705,-222.8 705,-170.8 581,-170.8"/>
</g>
<g id="clust2" class="cluster">
<title>cluster_AppModule_declarations</title>
<polygon fill="none" stroke="black" points="16,-40.8 16,-92.8 1140,-92.8 1140,-40.8 16,-40.8"/>
</g>
<!-- AppComponent -->
<g id="node1" class="node">
<title>AppComponent</title>
<polygon fill="#ffffb3" stroke="black" points="1131.94,-84.8 1026.06,-84.8 1026.06,-48.8 1131.94,-48.8 1131.94,-84.8"/>
<text text-anchor="middle" x="1079" y="-62.6" font-family="Times,serif" font-size="14.00">AppComponent</text>
</g>
<!-- AppModule -->
<g id="node9" class="node">
<title>AppModule</title>
<polygon fill="#8dd3c7" stroke="black" points="684.66,-149.8 681.66,-153.8 660.66,-153.8 657.66,-149.8 601.34,-149.8 601.34,-113.8 684.66,-113.8 684.66,-149.8"/>
<text text-anchor="middle" x="643" y="-127.6" font-family="Times,serif" font-size="14.00">AppModule</text>
</g>
<!-- AppComponent&#45;&gt;AppModule -->
<g id="edge1" class="edge">
<title>AppComponent&#45;&gt;AppModule</title>
<path fill="none" stroke="black" d="M1079,-84.93C1079,-105.37 1079,-135.8 1079,-135.8 1079,-135.8 694.81,-135.8 694.81,-135.8"/>
<polygon fill="black" stroke="black" points="694.81,-132.3 684.81,-135.8 694.81,-139.3 694.81,-132.3"/>
</g>
<!-- AuthenticationComponent -->
<g id="node2" class="node">
<title>AuthenticationComponent</title>
<polygon fill="#ffffb3" stroke="black" points="1008.04,-84.8 843.96,-84.8 843.96,-48.8 1008.04,-48.8 1008.04,-84.8"/>
<text text-anchor="middle" x="926" y="-62.6" font-family="Times,serif" font-size="14.00">AuthenticationComponent</text>
</g>
<!-- AuthenticationComponent&#45;&gt;AppModule -->
<g id="edge2" class="edge">
<title>AuthenticationComponent&#45;&gt;AppModule</title>
<path fill="none" stroke="black" d="M926,-85.07C926,-103.36 926,-128.8 926,-128.8 926,-128.8 694.76,-128.8 694.76,-128.8"/>
<polygon fill="black" stroke="black" points="694.76,-125.3 684.76,-128.8 694.76,-132.3 694.76,-125.3"/>
</g>
<!-- GridComponent -->
<g id="node3" class="node">
<title>GridComponent</title>
<polygon fill="#ffffb3" stroke="black" points="825.49,-84.8 718.51,-84.8 718.51,-48.8 825.49,-48.8 825.49,-84.8"/>
<text text-anchor="middle" x="772" y="-62.6" font-family="Times,serif" font-size="14.00">GridComponent</text>
</g>
<!-- GridComponent&#45;&gt;AppModule -->
<g id="edge3" class="edge">
<title>GridComponent&#45;&gt;AppModule</title>
<path fill="none" stroke="black" d="M772,-84.81C772,-100.85 772,-121.8 772,-121.8 772,-121.8 694.88,-121.8 694.88,-121.8"/>
<polygon fill="black" stroke="black" points="694.88,-118.3 684.88,-121.8 694.88,-125.3 694.88,-118.3"/>
</g>
<!-- HomeComponent -->
<g id="node4" class="node">
<title>HomeComponent</title>
<polygon fill="#ffffb3" stroke="black" points="700.55,-84.8 585.45,-84.8 585.45,-48.8 700.55,-48.8 700.55,-84.8"/>
<text text-anchor="middle" x="643" y="-62.6" font-family="Times,serif" font-size="14.00">HomeComponent</text>
</g>
<!-- HomeComponent&#45;&gt;AppModule -->
<g id="edge4" class="edge">
<title>HomeComponent&#45;&gt;AppModule</title>
<path fill="none" stroke="black" d="M643,-84.91C643,-84.91 643,-103.79 643,-103.79"/>
<polygon fill="black" stroke="black" points="639.5,-103.79 643,-113.79 646.5,-103.79 639.5,-103.79"/>
</g>
<!-- ListComponent -->
<g id="node5" class="node">
<title>ListComponent</title>
<polygon fill="#ffffb3" stroke="black" points="567.61,-84.8 464.39,-84.8 464.39,-48.8 567.61,-48.8 567.61,-84.8"/>
<text text-anchor="middle" x="516" y="-62.6" font-family="Times,serif" font-size="14.00">ListComponent</text>
</g>
<!-- ListComponent&#45;&gt;AppModule -->
<g id="edge5" class="edge">
<title>ListComponent&#45;&gt;AppModule</title>
<path fill="none" stroke="black" d="M516,-84.81C516,-100.85 516,-121.8 516,-121.8 516,-121.8 591.06,-121.8 591.06,-121.8"/>
<polygon fill="black" stroke="black" points="591.06,-125.3 601.06,-121.8 591.06,-118.3 591.06,-125.3"/>
</g>
<!-- NavbarComponent -->
<g id="node6" class="node">
<title>NavbarComponent</title>
<polygon fill="#ffffb3" stroke="black" points="446.03,-84.8 323.97,-84.8 323.97,-48.8 446.03,-48.8 446.03,-84.8"/>
<text text-anchor="middle" x="385" y="-62.6" font-family="Times,serif" font-size="14.00">NavbarComponent</text>
</g>
<!-- NavbarComponent&#45;&gt;AppModule -->
<g id="edge6" class="edge">
<title>NavbarComponent&#45;&gt;AppModule</title>
<path fill="none" stroke="black" d="M385,-85.07C385,-103.36 385,-128.8 385,-128.8 385,-128.8 591.26,-128.8 591.26,-128.8"/>
<polygon fill="black" stroke="black" points="591.26,-132.3 601.26,-128.8 591.26,-125.3 591.26,-132.3"/>
</g>
<!-- NotFoundComponent -->
<g id="node7" class="node">
<title>NotFoundComponent</title>
<polygon fill="#ffffb3" stroke="black" points="306.11,-84.8 167.89,-84.8 167.89,-48.8 306.11,-48.8 306.11,-84.8"/>
<text text-anchor="middle" x="237" y="-62.6" font-family="Times,serif" font-size="14.00">NotFoundComponent</text>
</g>
<!-- NotFoundComponent&#45;&gt;AppModule -->
<g id="edge7" class="edge">
<title>NotFoundComponent&#45;&gt;AppModule</title>
<path fill="none" stroke="black" d="M237,-84.93C237,-105.37 237,-135.8 237,-135.8 237,-135.8 591.08,-135.8 591.08,-135.8"/>
<polygon fill="black" stroke="black" points="591.08,-139.3 601.08,-135.8 591.08,-132.3 591.08,-139.3"/>
</g>
<!-- RecipesComponent -->
<g id="node8" class="node">
<title>RecipesComponent</title>
<polygon fill="#ffffb3" stroke="black" points="149.65,-84.8 24.35,-84.8 24.35,-48.8 149.65,-48.8 149.65,-84.8"/>
<text text-anchor="middle" x="87" y="-62.6" font-family="Times,serif" font-size="14.00">RecipesComponent</text>
</g>
<!-- RecipesComponent&#45;&gt;AppModule -->
<g id="edge8" class="edge">
<title>RecipesComponent&#45;&gt;AppModule</title>
<path fill="none" stroke="black" d="M87,-84.81C87,-107.29 87,-142.8 87,-142.8 87,-142.8 591.21,-142.8 591.21,-142.8"/>
<polygon fill="black" stroke="black" points="591.21,-146.3 601.21,-142.8 591.21,-139.3 591.21,-146.3"/>
</g>
<!-- AppComponent  -->
<g id="node11" class="node">
<title>AppComponent </title>
<polygon fill="#80b1d3" stroke="black" points="697.44,-214.8 588.56,-214.8 588.56,-178.8 697.44,-178.8 697.44,-214.8"/>
<text text-anchor="middle" x="643" y="-192.6" font-family="Times,serif" font-size="14.00">AppComponent </text>
</g>
<!-- AppModule&#45;&gt;AppComponent  -->
<g id="edge10" class="edge">
<title>AppModule&#45;&gt;AppComponent </title>
<path fill="none" stroke="black" stroke-dasharray="1,5" d="M643,-149.91C643,-149.91 643,-168.79 643,-168.79"/>
<polygon fill="black" stroke="black" points="639.5,-168.79 643,-178.79 646.5,-168.79 639.5,-168.79"/>
</g>
<!-- AppRoutingModule -->
<g id="node10" class="node">
<title>AppRoutingModule</title>
<polygon fill="#8dd3c7" stroke="black" points="1284.27,-84.8 1281.27,-88.8 1260.27,-88.8 1257.27,-84.8 1155.73,-84.8 1155.73,-48.8 1284.27,-48.8 1284.27,-84.8"/>
<text text-anchor="middle" x="1220" y="-62.6" font-family="Times,serif" font-size="14.00">AppRoutingModule</text>
</g>
<!-- AppRoutingModule&#45;&gt;AppModule -->
<g id="edge9" class="edge">
<title>AppRoutingModule&#45;&gt;AppModule</title>
<path fill="none" stroke="black" d="M1220,-84.81C1220,-107.29 1220,-142.8 1220,-142.8 1220,-142.8 694.96,-142.8 694.96,-142.8"/>
<polygon fill="black" stroke="black" points="694.96,-139.3 684.96,-142.8 694.96,-146.3 694.96,-139.3"/>
</g>
</g>
</svg>
