<?xml version="1.0" encoding="UTF-8" standalone="no"?>
<!DOCTYPE svg PUBLIC "-//W3C//DTD SVG 1.1//EN"
 "http://www.w3.org/Graphics/SVG/1.1/DTD/svg11.dtd">
<!-- Generated by graphviz version 2.47.3 (20210619.1520)
 -->
<!-- Title: dependencies Pages: 1 -->
<svg width="1316pt" height="247pt"
 viewBox="0.00 0.00 1316.00 246.80" xmlns="http://www.w3.org/2000/svg" xmlns:xlink="http://www.w3.org/1999/xlink">
<g id="graph0" class="graph" transform="scale(1 1) rotate(0) translate(4 242.8)">
<title>dependencies</title>
<polygon fill="white" stroke="transparent" points="-4,4 -4,-242.8 1312,-242.8 1312,4 -4,4"/>
<text text-anchor="middle" x="654" y="-8.2" font-family="sans-serif" font-size="14.00">dependencies</text>
<g id="clust1" class="cluster">
<title>cluster_AppModule</title>
<polygon fill="none" stroke="black" stroke-dasharray="1,5" points="8,-32.8 8,-230.8 1300,-230.8 1300,-32.8 8,-32.8"/>
</g>
<g id="clust2" class="cluster">
<title>cluster_AppModule_declarations</title>
<polygon fill="none" stroke="black" points="168,-40.8 168,-92.8 1292,-92.8 1292,-40.8 168,-40.8"/>
</g>
<g id="clust11" class="cluster">
<title>cluster_AppModule_imports</title>
<polygon fill="none" stroke="black" points="16,-40.8 16,-92.8 160,-92.8 160,-40.8 16,-40.8"/>
</g>
<g id="clust13" class="cluster">
<title>cluster_AppModule_bootstrap</title>
<polygon fill="none" stroke="black" points="606,-170.8 606,-222.8 730,-222.8 730,-170.8 606,-170.8"/>
</g>
<!-- AppComponent -->
<g id="node1" class="node">
<title>AppComponent</title>
<polygon fill="#ffffb3" stroke="black" points="1283.94,-84.8 1178.06,-84.8 1178.06,-48.8 1283.94,-48.8 1283.94,-84.8"/>
<text text-anchor="middle" x="1231" y="-62.6" font-family="Times,serif" font-size="14.00">AppComponent</text>
</g>
<!-- AppModule -->
<g id="node9" class="node">
<title>AppModule</title>
<polygon fill="#8dd3c7" stroke="black" points="709.66,-149.8 706.66,-153.8 685.66,-153.8 682.66,-149.8 626.34,-149.8 626.34,-113.8 709.66,-113.8 709.66,-149.8"/>
<text text-anchor="middle" x="668" y="-127.6" font-family="Times,serif" font-size="14.00">AppModule</text>
</g>
<!-- AppComponent&#45;&gt;AppModule -->
<g id="edge1" class="edge">
<title>AppComponent&#45;&gt;AppModule</title>
<path fill="none" stroke="black" d="M1231,-84.81C1231,-107.29 1231,-142.8 1231,-142.8 1231,-142.8 719.86,-142.8 719.86,-142.8"/>
<polygon fill="black" stroke="black" points="719.86,-139.3 709.86,-142.8 719.86,-146.3 719.86,-139.3"/>
</g>
<!-- AuthenticationComponent -->
<g id="node2" class="node">
<title>AuthenticationComponent</title>
<polygon fill="#ffffb3" stroke="black" points="1160.04,-84.8 995.96,-84.8 995.96,-48.8 1160.04,-48.8 1160.04,-84.8"/>
<text text-anchor="middle" x="1078" y="-62.6" font-family="Times,serif" font-size="14.00">AuthenticationComponent</text>
</g>
<!-- AuthenticationComponent&#45;&gt;AppModule -->
<g id="edge2" class="edge">
<title>AuthenticationComponent&#45;&gt;AppModule</title>
<path fill="none" stroke="black" d="M1078,-84.93C1078,-105.37 1078,-135.8 1078,-135.8 1078,-135.8 719.95,-135.8 719.95,-135.8"/>
<polygon fill="black" stroke="black" points="719.95,-132.3 709.95,-135.8 719.95,-139.3 719.95,-132.3"/>
</g>
<!-- GridComponent -->
<g id="node3" class="node">
<title>GridComponent</title>
<polygon fill="#ffffb3" stroke="black" points="977.49,-84.8 870.51,-84.8 870.51,-48.8 977.49,-48.8 977.49,-84.8"/>
<text text-anchor="middle" x="924" y="-62.6" font-family="Times,serif" font-size="14.00">GridComponent</text>
</g>
<!-- GridComponent&#45;&gt;AppModule -->
<g id="edge3" class="edge">
<title>GridComponent&#45;&gt;AppModule</title>
<path fill="none" stroke="black" d="M924,-85.07C924,-103.36 924,-128.8 924,-128.8 924,-128.8 719.7,-128.8 719.7,-128.8"/>
<polygon fill="black" stroke="black" points="719.7,-125.3 709.7,-128.8 719.7,-132.3 719.7,-125.3"/>
</g>
<!-- HomeComponent -->
<g id="node4" class="node">
<title>HomeComponent</title>
<polygon fill="#ffffb3" stroke="black" points="852.55,-84.8 737.45,-84.8 737.45,-48.8 852.55,-48.8 852.55,-84.8"/>
<text text-anchor="middle" x="795" y="-62.6" font-family="Times,serif" font-size="14.00">HomeComponent</text>
</g>
<!-- HomeComponent&#45;&gt;AppModule -->
<g id="edge4" class="edge">
<title>HomeComponent&#45;&gt;AppModule</title>
<path fill="none" stroke="black" d="M795,-84.81C795,-100.85 795,-121.8 795,-121.8 795,-121.8 719.94,-121.8 719.94,-121.8"/>
<polygon fill="black" stroke="black" points="719.94,-118.3 709.94,-121.8 719.94,-125.3 719.94,-118.3"/>
</g>
<!-- ListComponent -->
<g id="node5" class="node">
<title>ListComponent</title>
<polygon fill="#ffffb3" stroke="black" points="719.61,-84.8 616.39,-84.8 616.39,-48.8 719.61,-48.8 719.61,-84.8"/>
<text text-anchor="middle" x="668" y="-62.6" font-family="Times,serif" font-size="14.00">ListComponent</text>
</g>
<!-- ListComponent&#45;&gt;AppModule -->
<g id="edge5" class="edge">
<title>ListComponent&#45;&gt;AppModule</title>
<path fill="none" stroke="black" d="M668,-84.91C668,-84.91 668,-103.79 668,-103.79"/>
<polygon fill="black" stroke="black" points="664.5,-103.79 668,-113.79 671.5,-103.79 664.5,-103.79"/>
</g>
<!-- NavbarComponent -->
<g id="node6" class="node">
<title>NavbarComponent</title>
<polygon fill="#ffffb3" stroke="black" points="598.03,-84.8 475.97,-84.8 475.97,-48.8 598.03,-48.8 598.03,-84.8"/>
<text text-anchor="middle" x="537" y="-62.6" font-family="Times,serif" font-size="14.00">NavbarComponent</text>
</g>
<!-- NavbarComponent&#45;&gt;AppModule -->
<g id="edge6" class="edge">
<title>NavbarComponent&#45;&gt;AppModule</title>
<path fill="none" stroke="black" d="M537,-84.81C537,-100.85 537,-121.8 537,-121.8 537,-121.8 616.19,-121.8 616.19,-121.8"/>
<polygon fill="black" stroke="black" points="616.19,-125.3 626.19,-121.8 616.19,-118.3 616.19,-125.3"/>
</g>
<!-- NotFoundComponent -->
<g id="node7" class="node">
<title>NotFoundComponent</title>
<polygon fill="#ffffb3" stroke="black" points="458.11,-84.8 319.89,-84.8 319.89,-48.8 458.11,-48.8 458.11,-84.8"/>
<text text-anchor="middle" x="389" y="-62.6" font-family="Times,serif" font-size="14.00">NotFoundComponent</text>
</g>
<!-- NotFoundComponent&#45;&gt;AppModule -->
<g id="edge7" class="edge">
<title>NotFoundComponent&#45;&gt;AppModule</title>
<path fill="none" stroke="black" d="M389,-85.07C389,-103.36 389,-128.8 389,-128.8 389,-128.8 616.23,-128.8 616.23,-128.8"/>
<polygon fill="black" stroke="black" points="616.23,-132.3 626.23,-128.8 616.23,-125.3 616.23,-132.3"/>
</g>
<!-- RecipesComponent -->
<g id="node8" class="node">
<title>RecipesComponent</title>
<polygon fill="#ffffb3" stroke="black" points="301.65,-84.8 176.35,-84.8 176.35,-48.8 301.65,-48.8 301.65,-84.8"/>
<text text-anchor="middle" x="239" y="-62.6" font-family="Times,serif" font-size="14.00">RecipesComponent</text>
</g>
<!-- RecipesComponent&#45;&gt;AppModule -->
<g id="edge8" class="edge">
<title>RecipesComponent&#45;&gt;AppModule</title>
<path fill="none" stroke="black" d="M239,-84.93C239,-105.37 239,-135.8 239,-135.8 239,-135.8 616.08,-135.8 616.08,-135.8"/>
<polygon fill="black" stroke="black" points="616.08,-139.3 626.08,-135.8 616.08,-132.3 616.08,-139.3"/>
</g>
<!-- AppComponent  -->
<g id="node11" class="node">
<title>AppComponent </title>
<polygon fill="#80b1d3" stroke="black" points="722.44,-214.8 613.56,-214.8 613.56,-178.8 722.44,-178.8 722.44,-214.8"/>
<text text-anchor="middle" x="668" y="-192.6" font-family="Times,serif" font-size="14.00">AppComponent </text>
</g>
<!-- AppModule&#45;&gt;AppComponent  -->
<g id="edge10" class="edge">
<title>AppModule&#45;&gt;AppComponent </title>
<path fill="none" stroke="black" stroke-dasharray="1,5" d="M668,-149.91C668,-149.91 668,-168.79 668,-168.79"/>
<polygon fill="black" stroke="black" points="664.5,-168.79 668,-178.79 671.5,-168.79 664.5,-168.79"/>
</g>
<!-- AppRoutingModule -->
<g id="node10" class="node">
<title>AppRoutingModule</title>
<polygon fill="#8dd3c7" stroke="black" points="152.27,-84.8 149.27,-88.8 128.27,-88.8 125.27,-84.8 23.73,-84.8 23.73,-48.8 152.27,-48.8 152.27,-84.8"/>
<text text-anchor="middle" x="88" y="-62.6" font-family="Times,serif" font-size="14.00">AppRoutingModule</text>
</g>
<!-- AppRoutingModule&#45;&gt;AppModule -->
<g id="edge9" class="edge">
<title>AppRoutingModule&#45;&gt;AppModule</title>
<path fill="none" stroke="black" d="M88,-84.81C88,-107.29 88,-142.8 88,-142.8 88,-142.8 616.29,-142.8 616.29,-142.8"/>
<polygon fill="black" stroke="black" points="616.29,-146.3 626.29,-142.8 616.29,-139.3 616.29,-146.3"/>
</g>
</g>
</svg>
